<?xml version="1.0" encoding="UTF-8"?> <!-- Generator: Adobe Illustrator 23.0.1, SVG Export Plug-In . SVG Version: 6.00 Build 0) --> <svg xmlns="http://www.w3.org/2000/svg" xmlns:xlink="http://www.w3.org/1999/xlink" id="Layer_1" x="0px" y="0px" viewBox="0 0 120 120" style="enable-background:new 0 0 120 120;" xml:space="preserve"> <style type="text/css"> .st0{fill:#0077C0;} .st1{fill:#FFD400;} .st2{fill:#FFFFFF;} </style> <g> <g> <path class="st0" d="M0.594139,60.0861244c0-32.887001,26.6609974-59.5479965,59.5480003-59.5479965 s59.5479927,26.6609955,59.5479927,59.5479965s-26.6610031,59.5480003-59.5479927,59.5480003 S0.594139,92.9731216,0.594139,60.0861244"></path> <path class="st1" d="M87.2178345,44.7079277c2.0689926,0,3.9399948,0.8450012,5.2889938,2.2070007 c1.3310013-1.3449936,2.1549988-3.1949997,2.1549988-5.2369995c0-4.1110001-3.3329926-7.4430008-7.4439926-7.4430008 s-7.4440002,3.3320007-7.4440002,7.4430008c0,2.0419998,0.8239975,3.8920059,2.1549988,5.2369995 C83.277832,45.5529289,85.1498337,44.7079277,87.2178345,44.7079277"></path> <polygon class="st2" points="85.8705368,73.2207184 91.3035355,73.2207184 88.587532,66.1587219 "></polygon> <polygon class="st2" points="107.9794388,73.2207184 97.9294357,47.0927238 95.9194336,47.0927238 92.9514389,54.8117256 96.0254364,62.8057289 89.8764343,62.8057289 89.2434387,64.4507217 96.6574326,64.4507217 100.0314331,73.2207184 "></polygon> <rect x="61.3092384" y="47.3406258" class="st2" width="7.5139999" height="25.7609978"></rect> <path class="st2" d="M78.4110336,61.1630211l-0.4410019-0.8359985c2.6520004-0.8129959,4.4550018-3.1139984,4.4550018-6.0400009 c0-3.9419937-3.1580048-6.8759995-8.4940033-6.8759995c-1.026001,0-2.3010025,0.0320053-3.2969971,0v0.75 c2.4689941,0.4060059,4.3799973,2.7960052,4.3799973,6.1259995c0,3.3300018-1.788002,5.9400024-4.3799973,6.8759995 l6.2869949,11.9379997h7.7779999L78.4110336,61.1630211z"></path> <path class="st2" d="M41.0547409,59.9984245V47.3404274h-7.4180031v12.6579971 c0,7.1619987,4.6070023,13.0119972,11.531002,13.3959999v-0.7659988 C42.3457375,71.8364258,41.0547409,67.5884247,41.0547409,59.9984245"></path> <path class="st2" d="M50.7309418,47.3404274v12.6580048c0,7.590992-1.2900009,11.8379936-4.1130028,12.6299934v0.7659988 c6.923996-0.3839951,11.5309982-6.2340012,11.5309982-13.3959923V47.3404274H50.7309418z"></path> <polygon class="st2" points="34.4138412,73.2207184 28.9808369,73.2207184 31.6968365,66.1587219 "></polygon> <polygon class="st2" points="12.3049383,73.2207184 22.3549366,47.0927238 24.3649349,47.0927238 27.3329372,54.8117256 24.2589359,62.8057289 30.407938,62.8057289 31.0409374,64.4507217 23.626936,64.4507217 20.2529354,73.2207184 "></polygon> </g> </g> </svg> 