<svg width="13" height="14" viewBox="0 0 13 14" fill="none" xmlns="http://www.w3.org/2000/svg">
<g clip-path="url(#clip0_771_1882)">
<path d="M9.48178 6.42188C7.54044 6.42188 5.96094 8.12288 5.96094 10.2136C5.96094 12.3042 7.54044 14.0052 9.48178 14.0052C11.4231 14.0052 13.0026 12.3042 13.0026 10.2136C13.0026 8.12288 11.4231 6.42188 9.48178 6.42188ZM9.41407 9.77605H9.54949C10.1096 9.77605 10.5651 10.2666 10.5651 10.8698C10.5651 11.3441 10.2813 11.7454 9.88803 11.8965V12.1094C9.88803 12.3509 9.70603 12.5469 9.48178 12.5469C9.25753 12.5469 9.07553 12.3509 9.07553 12.1094V11.9636H8.80469C8.58044 11.9636 8.39844 11.7676 8.39844 11.5261C8.39844 11.2846 8.58044 11.0886 8.80469 11.0886H9.54949C9.66161 11.0886 9.75261 10.9906 9.75261 10.8698C9.75261 10.7491 9.66161 10.6511 9.54949 10.6511H9.41407C8.85399 10.6511 8.39844 10.1605 8.39844 9.5573C8.39844 9.08305 8.68228 8.68171 9.07553 8.53063V8.31771C9.07553 8.07621 9.25753 7.88021 9.48178 7.88021C9.70603 7.88021 9.88803 8.07621 9.88803 8.31771V8.46355H10.1589C10.3831 8.46355 10.5651 8.65955 10.5651 8.90105C10.5651 9.14255 10.3831 9.33855 10.1589 9.33855H9.41407C9.30194 9.33855 9.21094 9.43655 9.21094 9.5573C9.21094 9.67805 9.30194 9.77605 9.41407 9.77605Z" fill="#0957CB"/>
<path d="M9.20833 3.47594V1.1671C9.20833 0.84452 8.96567 0.583771 8.66667 0.583771C8.36767 0.583771 8.125 0.84452 8.125 1.1671V2.33494L6.06613 0.166687C5.85542 -0.0555625 5.51904 -0.0555625 5.30888 0.166687L0.237792 5.50535C0.0866667 5.66985 0 5.8956 0 6.12543C0 6.60785 0.364542 7.00043 0.8125 7.00043H1.625V10.2088C1.625 11.0132 2.23275 11.6671 2.97917 11.6671H4.33333C4.63233 11.6671 4.875 11.4063 4.875 11.0838C4.875 10.7612 4.63233 10.5004 4.33333 10.5004H2.97917C2.82967 10.5004 2.70833 10.3692 2.70833 10.2088V6.4171C2.70833 6.09452 2.46567 5.83377 2.16667 5.83377H1.47496L5.6875 1.39927L9.23596 5.1361C9.45046 5.36185 9.79279 5.35777 10.0019 5.12677C10.211 4.89635 10.2072 4.5271 9.99321 4.30193L9.20833 3.47594Z" fill="#0957CB"/>
</g>
<defs>
<clipPath id="clip0_771_1882">
<rect width="13" height="14" fill="white"/>
</clipPath>
</defs>
</svg>
