<svg width="9" height="15" viewBox="0 0 9 15" fill="none" xmlns="http://www.w3.org/2000/svg">
<path d="M4.096 14.392V13.16C3.05067 13.0427 2.224 12.6693 1.616 12.04C1.008 11.4107 0.704 10.6107 0.704 9.64H2.112C2.112 10.2053 2.27733 10.712 2.608 11.16C2.94933 11.5973 3.44533 11.88 4.096 12.008V7.672C4.02133 7.65067 3.94133 7.62933 3.856 7.608C3.78133 7.576 3.70667 7.54933 3.632 7.528C2.768 7.22933 2.128 6.86133 1.712 6.424C1.296 5.976 1.088 5.39467 1.088 4.68C1.07733 3.848 1.33867 3.15467 1.872 2.6C2.416 2.04533 3.15733 1.72533 4.096 1.64V0.344H5.2V1.64C6.096 1.74667 6.81067 2.08267 7.344 2.648C7.87733 3.21333 8.14933 3.90133 8.16 4.712H6.752C6.752 4.31733 6.624 3.93867 6.368 3.576C6.112 3.20267 5.72267 2.952 5.2 2.824V6.696C5.28533 6.71733 5.37067 6.744 5.456 6.776C5.54133 6.808 5.632 6.83467 5.728 6.856C6.26133 7.048 6.74133 7.272 7.168 7.528C7.59467 7.784 7.92533 8.11467 8.16 8.52C8.40533 8.92533 8.528 9.44267 8.528 10.072C8.528 10.5733 8.40533 11.048 8.16 11.496C7.91467 11.944 7.54133 12.3227 7.04 12.632C6.54933 12.9413 5.936 13.1227 5.2 13.176V14.392H4.096ZM2.48 4.552C2.48 5.04267 2.624 5.416 2.912 5.672C3.2 5.91733 3.59467 6.13067 4.096 6.312V2.792C3.616 2.86667 3.22667 3.05867 2.928 3.368C2.62933 3.66667 2.48 4.06133 2.48 4.552ZM7.136 10.152C7.136 9.53333 6.95467 9.07467 6.592 8.776C6.22933 8.47733 5.76533 8.232 5.2 8.04V12.04C5.81867 11.9653 6.29333 11.752 6.624 11.4C6.96533 11.048 7.136 10.632 7.136 10.152Z" fill="#0957CB"/>
</svg>
