<svg width="12" height="13" viewBox="0 0 12 13" fill="none" xmlns="http://www.w3.org/2000/svg">
<path d="M0.368 8.128V7.12H1.664C1.64267 6.88533 1.632 6.64533 1.632 6.4C1.632 6.15467 1.64267 5.90933 1.664 5.664H0.368V4.672H1.824C2.112 3.43467 2.704 2.448 3.6 1.712C4.496 0.976 5.616 0.608 6.96 0.608C8.25067 0.608 9.296 0.917333 10.096 1.536C10.896 2.144 11.408 2.99733 11.632 4.096H10.144C9.97333 3.40267 9.62667 2.848 9.104 2.432C8.58133 2.00533 7.86667 1.792 6.96 1.792C6.02133 1.792 5.22667 2.04267 4.576 2.544C3.92533 3.04533 3.47733 3.75467 3.232 4.672H7.28V5.664H3.04C3.01867 5.89867 3.008 6.144 3.008 6.4C3.008 6.656 3.01867 6.896 3.04 7.12H7.28V8.128H3.216C3.472 9.03467 3.92533 9.744 4.576 10.256C5.22667 10.7573 6.02133 11.008 6.96 11.008C7.86667 11.008 8.58133 10.8053 9.104 10.4C9.62667 9.984 9.97333 9.43467 10.144 8.752H11.632C11.408 9.82933 10.896 10.672 10.096 11.28C9.296 11.888 8.25067 12.192 6.96 12.192C5.60533 12.192 4.48 11.824 3.584 11.088C2.688 10.352 2.096 9.36533 1.808 8.128H0.368Z" fill="#0957CB"/>
</svg>
