<svg width="15" height="15" viewBox="0 0 15 15" fill="none" xmlns="http://www.w3.org/2000/svg">
<g clip-path="url(#clip0_771_1879)">
<path d="M12.5 12.499C12.5 12.6647 12.4342 12.8237 12.3169 12.9409C12.1997 13.0581 12.0408 13.124 11.875 13.124H3.125C2.95924 13.124 2.80027 13.0581 2.68306 12.9409C2.56585 12.8237 2.5 12.6647 2.5 12.499V6.87397H0.625L7.07937 1.00647C7.19444 0.901772 7.34443 0.84375 7.5 0.84375C7.65557 0.84375 7.80556 0.901772 7.92063 1.00647L14.375 6.87397H12.5V12.499ZM7.5 10.624L9.59937 8.5246C9.72996 8.39401 9.83354 8.23899 9.90421 8.06838C9.97488 7.89776 10.0113 7.7149 10.0113 7.53022C10.0113 7.34555 9.97488 7.16269 9.90421 6.99207C9.83354 6.82146 9.72996 6.66643 9.59937 6.53585C9.46879 6.40526 9.31377 6.30168 9.14315 6.23101C8.97254 6.16034 8.78967 6.12396 8.605 6.12396C8.42033 6.12396 8.23746 6.16034 8.06685 6.23101C7.89623 6.30168 7.74121 6.40526 7.61063 6.53585L7.5 6.64647L7.38937 6.53585C7.25879 6.40526 7.10377 6.30168 6.93315 6.23101C6.76254 6.16034 6.57967 6.12396 6.395 6.12396C6.21033 6.12396 6.02746 6.16034 5.85685 6.23101C5.68623 6.30168 5.53121 6.40526 5.40062 6.53585C5.27004 6.66643 5.16646 6.82146 5.09579 6.99207C5.02512 7.16269 4.98874 7.34555 4.98874 7.53022C4.98874 7.7149 5.02512 7.89776 5.09579 8.06838C5.16646 8.23899 5.27004 8.39401 5.40062 8.5246L7.5 10.624Z" fill="#0957CB"/>
</g>
<defs>
<clipPath id="clip0_771_1879">
<rect width="15" height="15" fill="white"/>
</clipPath>
</defs>
</svg>
