<svg width="11" height="12" viewBox="0 0 11 12" fill="none" xmlns="http://www.w3.org/2000/svg">
<path d="M0.36 12V0.575999H4.056C4.83467 0.575999 5.47467 0.730666 5.976 1.04C6.488 1.33867 6.86667 1.76 7.112 2.304C7.35733 2.83733 7.48 3.46133 7.48 4.176V9.088H6.184V4.192C6.184 3.63733 6.09333 3.17333 5.912 2.8C5.73067 2.42667 5.46933 2.14933 5.128 1.968C4.79733 1.776 4.38667 1.68 3.896 1.68H1.656V12H0.36ZM3.272 3.488H4.568V10.896H6.744C7.288 10.896 7.74133 10.8 8.104 10.608C8.46667 10.416 8.73867 10.1333 8.92 9.76C9.10133 9.376 9.192 8.912 9.192 8.368V0.575999H10.488V8.368C10.488 9.06133 10.3653 9.68533 10.12 10.24C9.87467 10.784 9.48533 11.216 8.952 11.536C8.41867 11.8453 7.72 12 6.856 12H3.272V3.488Z" fill="#0957CB"/>
</svg>
