<svg width="35" height="36" viewBox="0 0 35 36" fill="none" xmlns="http://www.w3.org/2000/svg">
<path d="M17.6613 -3.26428e-07C14.3297 -2.61867e-07 11.0729 1.05568 8.3028 3.03355C5.53267 5.01141 3.37361 7.82263 2.09866 11.1117C0.823704 14.4008 0.490119 18.02 1.14008 21.5116C1.79005 25.0033 3.39437 28.2106 5.75018 30.7279C8.10598 33.2453 11.1075 34.9596 14.3751 35.6541C17.6427 36.3487 21.0296 35.9922 24.1076 34.6298C27.1856 33.2674 29.8164 30.9603 31.6674 28.0003C33.5183 25.0402 34.5063 21.5601 34.5063 18C34.5063 13.2261 32.7315 8.64773 29.5725 5.27208C26.4135 1.89642 22.1289 -4.13002e-07 17.6613 -3.26428e-07ZM28.6632 11.9587L14.8293 26.73L6.6595 18C6.38028 17.7016 6.22341 17.297 6.22341 16.875C6.22341 16.453 6.38028 16.0484 6.6595 15.75C6.93872 15.4516 7.31743 15.284 7.71231 15.284C8.10718 15.284 8.48589 15.4516 8.76511 15.75L14.8503 22.2525L26.5786 9.73125C26.7169 9.58351 26.881 9.46632 27.0617 9.38636C27.2423 9.30641 27.4359 9.26526 27.6314 9.26526C27.827 9.26526 28.0206 9.30641 28.2012 9.38636C28.3818 9.46632 28.546 9.58351 28.6842 9.73125C28.8225 9.87898 28.9322 10.0544 29.007 10.2474C29.0818 10.4404 29.1203 10.6473 29.1203 10.8562C29.1203 11.0652 29.0818 11.2721 29.007 11.4651C28.9322 11.6581 28.8225 11.8335 28.6842 11.9812L28.6632 11.9587Z" fill="#99DD63"/>
</svg>
