<svg width="98" height="38" viewBox="0 0 98 38" fill="none" xmlns="http://www.w3.org/2000/svg">
<path d="M26.4279 3.43143L3.42783 26.4315C1.53469 28.3247 1.53469 31.3941 3.42783 33.2872L4.00758 33.867C5.90072 35.7601 8.97011 35.7601 10.8632 33.867L33.8634 10.8668C35.7565 8.97371 35.7565 5.90432 33.8634 4.01118L33.2836 3.43143C31.3905 1.53829 28.3211 1.53829 26.4279 3.43143Z" fill="white"/>
<path d="M46.8596 3.43143L23.8595 26.4315C21.9663 28.3247 21.9663 31.3941 23.8595 33.2872L24.4392 33.867C26.3324 35.7601 29.4017 35.7601 31.2949 33.867L54.295 10.8668C56.1881 8.97371 56.1881 5.90432 54.295 4.01118L53.7152 3.43143C51.8221 1.53829 48.7527 1.53829 46.8596 3.43143Z" fill="#0957CB"/>
<path d="M96.3809 26.2456L73.9606 3.82535C72.9435 2.84002 71.5829 2.28906 70.1668 2.28906C68.7507 2.28906 67.3902 2.84002 66.3731 3.82535L43.9526 26.2456C42.9698 27.2323 42.4186 28.5685 42.4199 29.9612C42.4213 31.3538 42.9751 32.689 43.9598 33.6738C44.9446 34.6585 46.2798 35.2123 47.6724 35.2137C49.0651 35.215 50.4013 34.6638 51.388 33.681L70.1667 14.9025L88.9455 33.681C89.4333 34.1708 90.013 34.5595 90.6513 34.825C91.2896 35.0905 91.974 35.2275 92.6653 35.2282C93.3566 35.2289 94.0412 35.0932 94.68 34.829C95.3189 34.5647 95.8993 34.1771 96.3881 33.6883C96.8769 33.1994 97.2646 32.619 97.5288 31.9802C97.793 31.3414 97.9287 30.6567 97.928 29.9654C97.9274 29.2741 97.7904 28.5897 97.5249 27.9514C97.2594 27.3131 96.8706 26.7335 96.3809 26.2456Z" fill="#0957CB"/>
<path d="M69.5635 24.0537L64.0095 29.6077C63.6806 29.9365 63.6806 30.4697 64.0095 30.7985L69.5635 36.3526C69.8924 36.6814 70.4255 36.6814 70.7544 36.3526L76.3084 30.7985C76.6373 30.4697 76.6373 29.9365 76.3084 29.6077L70.7544 24.0537C70.4255 23.7248 69.8924 23.7248 69.5635 24.0537Z" fill="white"/>
</svg>
