<svg width="173" height="20" viewBox="0 0 173 20" fill="none" xmlns="http://www.w3.org/2000/svg">
<path d="M71.5144 1.84225L59.2497 14.1773C58.2402 15.1926 58.2402 16.8387 59.2497 17.854L59.5589 18.1649C60.5684 19.1802 62.2051 19.1802 63.2146 18.1649L75.4792 5.82988C76.4888 4.81459 76.4888 3.16847 75.4792 2.15317L75.1701 1.84225C74.1606 0.826954 72.5239 0.826955 71.5144 1.84225Z" fill="white"/>
<path d="M82.4089 1.84225L70.1443 14.1773C69.1348 15.1926 69.1348 16.8387 70.1443 17.854L70.4534 18.1649C71.4629 19.1802 73.0996 19.1802 74.1091 18.1649L86.3738 5.82988C87.3833 4.81459 87.3833 3.16847 86.3738 2.15317L86.0646 1.84225C85.0551 0.826954 83.4184 0.826955 82.4089 1.84225Z" fill="#0957CB"/>
<path d="M108.815 14.0745L96.8598 2.05048C96.3175 1.52204 95.592 1.22656 94.8368 1.22656C94.0817 1.22656 93.3562 1.52204 92.8138 2.05048L80.8583 14.0745C80.3342 14.6037 80.0403 15.3203 80.041 16.0672C80.0417 16.8141 80.3371 17.5301 80.8622 18.0583C81.3873 18.5864 82.0993 18.8834 82.8419 18.8841C83.5845 18.8848 84.297 18.5892 84.8232 18.0621L94.8368 7.99118L104.85 18.0621C105.111 18.3248 105.42 18.5333 105.76 18.6757C106.1 18.8181 106.465 18.8915 106.834 18.8919C107.203 18.8923 107.568 18.8195 107.908 18.6778C108.249 18.5361 108.558 18.3282 108.819 18.066C109.08 17.8039 109.286 17.4926 109.427 17.15C109.568 16.8074 109.641 16.4402 109.64 16.0695C109.64 15.6987 109.567 15.3317 109.425 14.9894C109.284 14.647 109.076 14.3362 108.815 14.0745Z" fill="#0957CB"/>
<path d="M94.5155 12.8973L91.5538 15.876C91.3785 16.0523 91.3785 16.3383 91.5538 16.5146L94.5155 19.4933C94.6908 19.6696 94.9751 19.6696 95.1505 19.4933L98.1121 16.5146C98.2875 16.3383 98.2875 16.0523 98.1121 15.876L95.1505 12.8973C94.9751 12.721 94.6908 12.721 94.5155 12.8973Z" fill="white"/>
<path d="M16.8179 10.2276V11.4391C16.8179 12.4953 16.6789 13.4893 16.401 14.4213C16.123 15.3532 15.6365 16.1647 14.9416 16.8559C14.2466 17.5471 13.3161 18.0946 12.1501 18.4984C10.9842 18.9023 9.51317 19.1042 7.73717 19.1042H6.90323C5.71408 19.1042 4.54038 19.0654 3.38212 18.9877C2.22386 18.91 1.09649 18.7935 0 18.6382V3.05176C1.09649 2.88091 2.22386 2.75665 3.38212 2.67899C4.54038 2.60133 5.71408 2.5625 6.90323 2.5625H7.73717C9.51317 2.5625 10.9842 2.76442 12.1501 3.16825C13.3161 3.57209 14.2466 4.11959 14.9416 4.81077C15.6365 5.50195 16.123 6.3135 16.401 7.24543C16.6789 8.17735 16.8179 9.17141 16.8179 10.2276ZM7.01905 15.4231C8.40896 15.4231 9.47843 15.3105 10.2274 15.0853C10.9764 14.86 11.5247 14.5416 11.8722 14.13C12.2196 13.7184 12.4204 13.233 12.4745 12.6739C12.5285 12.1147 12.5555 11.5012 12.5555 10.8333C12.5555 10.1655 12.5285 9.55194 12.4745 8.99279C12.4204 8.43363 12.2196 7.95214 11.8722 7.5483C11.5247 7.14447 10.9764 6.82994 10.2274 6.60473C9.47843 6.37951 8.40896 6.2669 7.01905 6.2669C6.61752 6.2669 6.17352 6.27467 5.68705 6.2902C5.20058 6.30573 4.69481 6.32903 4.16974 6.3601V15.3299C4.69481 15.3609 5.20058 15.3842 5.68705 15.3998C6.17352 15.4153 6.61752 15.4231 7.01905 15.4231Z" fill="black"/>
<path d="M21.2422 3.03125H24.856L27.9601 13.3057L31.1337 3.03125H34.0757L37.1798 13.3057L40.3535 3.03125H43.9672V3.96318L38.6393 18.641H35.7899L32.5468 8.55291L29.4195 18.641H26.5702L21.2422 3.96318V3.03125Z" fill="black"/>
<path d="M64.2376 3.03125V6.75895H53.5584V9.08877H61.921V12.8165H53.5584V14.9133H64.2376V18.641H49.3887V3.03125H64.2376Z" fill="black"/>
<path d="M129.888 3.03125V6.75895H119.209V9.08877H127.571V12.8165H119.209V14.9133H129.888V18.641H115.039V3.03125H129.888Z" fill="black"/>
<path d="M151.617 18.6382H147.586L144.482 13.7456C143.648 13.7456 142.845 13.7378 142.073 13.7223C141.301 13.7068 140.544 13.6369 139.803 13.5126V18.6382H135.633V3.02846C136.961 2.87314 138.355 2.75665 139.814 2.67899C141.274 2.60133 142.706 2.5625 144.111 2.5625H144.76C146.057 2.5625 147.13 2.69841 147.98 2.97022C148.829 3.24203 149.509 3.61092 150.018 4.07688C150.528 4.54284 150.883 5.08647 151.084 5.70775C151.285 6.32903 151.385 6.98915 151.385 7.68809V8.62002C151.385 9.59854 151.192 10.4878 150.806 11.2877C150.42 12.0876 149.733 12.705 148.744 13.1399L151.617 17.7063V18.6382ZM144.158 6.2902C143.617 6.2902 142.949 6.30574 142.154 6.3368C141.358 6.36786 140.575 6.42223 139.803 6.49989V9.80822C140.528 9.90142 141.216 9.95966 141.864 9.98296C142.513 10.0063 143.038 10.0179 143.439 10.0179C144.366 10.0179 145.084 9.97519 145.594 9.88977C146.103 9.80434 146.478 9.6762 146.717 9.50535C146.957 9.33449 147.1 9.11704 147.146 8.853C147.192 8.58895 147.215 8.27055 147.215 7.89778C147.215 7.69586 147.2 7.49782 147.169 7.30367C147.138 7.10952 147.026 6.93479 146.833 6.77946C146.64 6.62414 146.335 6.50377 145.918 6.41834C145.501 6.33292 144.914 6.2902 144.158 6.2902Z" fill="black"/>
<path d="M164.914 15.3765C165.748 15.3765 166.4 15.3338 166.871 15.2483C167.342 15.1629 167.697 15.0542 167.937 14.9222C168.176 14.7901 168.327 14.6426 168.389 14.4795C168.45 14.3164 168.481 14.165 168.481 14.0252C168.481 13.7456 168.416 13.5243 168.284 13.3612C168.153 13.1981 167.945 13.07 167.659 12.9768C167.373 12.8836 166.995 12.8176 166.524 12.7787C166.053 12.7399 165.485 12.7127 164.821 12.6972C164.435 12.6817 163.979 12.6584 163.454 12.6273C162.929 12.5962 162.389 12.5302 161.833 12.4293C161.277 12.3283 160.729 12.1807 160.188 11.9866C159.648 11.7924 159.165 11.5206 158.74 11.1712C158.316 10.8217 157.972 10.3829 157.709 9.85482C157.447 9.32673 157.316 8.68215 157.316 7.92107V7.6182C157.316 6.95032 157.435 6.30962 157.675 5.6961C157.914 5.08258 158.323 4.54284 158.902 4.07688C159.482 3.61092 160.261 3.24203 161.242 2.97022C162.223 2.69841 163.447 2.5625 164.914 2.5625H165.748C166.813 2.5625 167.848 2.62851 168.852 2.76053C169.856 2.89256 170.836 3.08283 171.794 3.33134V7.17553C170.666 6.91149 169.551 6.7018 168.446 6.54648C167.342 6.39116 166.219 6.3135 165.076 6.3135C164.242 6.3135 163.586 6.35621 163.107 6.44164C162.628 6.52707 162.269 6.63579 162.03 6.76781C161.79 6.89984 161.64 7.03963 161.578 7.18718C161.516 7.33474 161.485 7.47841 161.485 7.6182C161.485 7.89777 161.551 8.12299 161.682 8.29384C161.813 8.4647 162.026 8.59672 162.319 8.68991C162.613 8.7831 162.991 8.84912 163.454 8.88795C163.918 8.92678 164.474 8.95396 165.122 8.96949C165.493 8.98502 165.933 9.00444 166.443 9.02773C166.952 9.05103 167.489 9.11316 168.053 9.21412C168.616 9.31508 169.172 9.46652 169.721 9.66843C170.269 9.87035 170.759 10.146 171.192 10.4955C171.624 10.845 171.975 11.2877 172.246 11.8235C172.516 12.3594 172.651 13.0078 172.651 13.7689V14.0718C172.651 14.7397 172.531 15.3765 172.292 15.9822C172.053 16.588 171.639 17.1238 171.053 17.5898C170.466 18.0558 169.686 18.4247 168.713 18.6965C167.74 18.9683 166.512 19.1042 165.03 19.1042H164.196C162.976 19.1042 161.79 19.0382 160.64 18.9061C159.489 18.7741 158.358 18.5916 157.246 18.3586V14.4446C158.497 14.7241 159.79 14.9493 161.126 15.1202C162.462 15.2911 163.725 15.3765 164.914 15.3765Z" fill="black"/>
</svg>
