<?xml version="1.0" encoding="utf-8"?>
<!-- Generator: Adobe Illustrator 26.0.3, SVG Export Plug-In . SVG Version: 6.00 Build 0)  -->
<svg version="1.1" id="Layer_1" xmlns="http://www.w3.org/2000/svg" xmlns:xlink="http://www.w3.org/1999/xlink" x="0px" y="0px"
	 viewBox="0 0 1170 590" style="enable-background:new 0 0 1170 590;" xml:space="preserve">
<style type="text/css">
	.st0{fill:#0094FF;}
	.st1{fill:#0066B0;}
	.st2{fill:#13100D;}
</style>
<g>
	<path class="st0" d="M181.2,184.3l64.7-11.3v-63.3L181.2,121V184.3z M124.5,302l123.2-19.5v-63.3l-123.2,19.3V302z M202.8,379
		l-78.4,12.2v-62.4l78.4-13V379z M124.5,484l123.2-19.3v-63.3l-123.2,19.3V484z"/>
	<path class="st1" d="M1.5,62.3l61.4,11.4v-63L1.5-0.1V62.3z M1.5,275.2L125,302v-63.3L1.5,212.8V275.2z M124.8,391.2l-75.7-18.3
		v-63l75.7,19V391.2z M1.5,454.7L125,484.1v-63.3L1.5,392.3V454.7z"/>
	<polygon class="st2" points="544.8,189.1 508.3,189.1 508.3,379.2 640.2,379.2 640.2,345.4 544.8,345.4 	"/>
	<polygon class="st2" points="388.2,297.5 459.1,297.5 459.1,267.7 388.2,267.7 388.2,220.9 481.6,220.9 481.6,189.1 351.7,189.1 
		351.7,379.2 483.9,379.2 483.9,345.4 388.2,345.4 	"/>
	<path class="st2" d="M1115.8,264.7c0,8.4-6.7,15.7-16.4,15.7h-45.2v-59.9h45.2c9.7,0,16.4,7.7,16.4,16.1V264.7z M1119.8,308.6h2.7
		c17.1-3.3,29.5-18.7,29.5-36.8v-44.2c0-21.1-17.1-38.5-38.5-38.5h-95.7v190.1h36.5v-68.9h25.4l48.2,68.9h41.8L1119.8,308.6z"/>
	<path class="st2" d="M882.2,300.2l24.5-65.6l24.4,65.6H882.2z M889.3,189.1l-73.6,190.1h38.1l18.4-49.2h68.9l18.4,49.2h38.2
		L924,189.1H889.3z"/>
	<path class="st2" d="M697,226.3l33.7,0c11.9,0,20,0.5,24,1.5c5.1,1.3,9.4,3.9,13,8c3.6,4.1,6.3,9.9,8.1,17.3
		c1.8,7.6,2.7,18.3,2.7,31.6c0,12.8-0.9,23.3-2.7,31.1c-1.8,7.6-3.9,13.1-6.5,16.5c-2.5,3.3-5.6,5.7-9.6,7.4c-3,1.3-9,2.8-20,2.8
		l-42.8-0.1V226.3z M810.8,240.8c-3.6-12.2-8.5-22.4-14.8-30.1c-6.3-7.8-13.3-13.5-20.9-16.8c-7.6-3.4-18.4-4.8-33-4.8l-59.3-0.1v0
		h-22.3v190.1h22.7v0l60.4,0.1c12.7,0,23.3-1.9,31.4-5.5c8.3-3.7,15.4-9.2,21.2-16.4c5.8-7.1,10.6-16.9,14.3-29
		c3.7-12,5.5-26.3,5.5-42.4C816.1,268.1,814.3,252.9,810.8,240.8"/>
</g>
<path class="st2" d="M681.3,415.8v10.5h20.5c0.1,0.5,0.3,1,0.4,1.4c0.1,0.4,0.2,0.8,0.3,1.1c0.1,0.6,0.2,1.1,0.2,1.6
	c0,0.5,0,1.1,0,1.8v7.8c0,2.8-0.6,5.5-1.7,8.1c-1.1,2.5-2.8,5-5.1,7.6l-9.2,10.2l-7-6l4.1-4.6c1.8-1.9,3.2-3.6,4.4-4.8
	c1.2-1.3,2.1-2.4,2.8-3.5c0.7-1,1.2-2,1.5-3c0.3-0.9,0.4-2.1,0.4-3.3v-6.5h-21.4v-18.4H681.3z M722.4,434.1c-1.2,0-2.3,0-3.2,0
	c-0.9-0.1-1.8-0.1-2.7-0.2c-0.9-0.1-1.7-0.3-2.6-0.5c-0.9-0.2-1.9-0.5-3.1-0.9c0.4-1.3,0.8-2.6,1.2-3.8c0.4-1.3,0.8-2.5,1.3-3.7
	c1.2,0.3,2.3,0.6,3.1,0.8c0.9,0.2,1.7,0.4,2.5,0.4c0.8,0.1,1.7,0.2,2.5,0.2c0.9,0,2,0,3.2,0h20.8v7.8h-7.3v29.7h-9.8v-29.7H722.4z
	 M773.2,426.3v5c0,0.5,0,1,0.1,1.5c0,0.6,0.1,1.3,0.2,2c0.1,0.8,0.2,1.8,0.4,3c0.1,1.2,0.3,2.6,0.5,4.2c0.2,1.6,0.4,3.6,0.7,5.8
	c0.2,2.2,0.5,4.8,0.8,7.7c0,0.4,0.1,0.8,0.1,1.1c0,0.4,0,0.7,0,1c0,0.6,0,1-0.1,1.5c0,0.5-0.1,0.9-0.2,1.4c-0.1,0.5-0.1,1-0.2,1.5
	c-0.1,0.5-0.2,1.1-0.3,1.7h-24.4V456h15.6c0-0.5,0-1.4-0.2-2.5c-0.1-1.1-0.2-2.5-0.4-3.9c-0.2-1.5-0.4-3-0.6-4.6
	c-0.2-1.6-0.4-3.2-0.6-4.6c-0.2-1.4-0.3-2.7-0.4-3.9c-0.1-1.1-0.2-1.9-0.2-2.4h-9.3v-7.8H773.2z M822,426.3V440c0,1.3,0,2.4,0,3.2
	c0,0.9-0.1,1.7-0.1,2.4c-0.1,0.7-0.2,1.4-0.3,2.1c-0.1,0.7-0.3,1.4-0.5,2.3l-9.7-1.4c0.1-0.7,0.2-1.4,0.3-2c0.1-0.6,0.2-1.2,0.2-1.9
	c0.1-0.7,0.1-1.4,0.2-2.3c0-0.8,0.1-1.9,0.1-3v-5.2H804v-7.8H822z M852.7,426.3V439c0,1.7,0,3.1,0.1,4.2c0,1.1,0.1,2.2,0.2,3.1
	c0.1,0.9,0.3,1.8,0.5,2.7c0.2,0.9,0.5,1.8,0.9,2.8c0.4,1.3,0.8,2.4,1.1,3.5c0.3,1,0.6,2,1,2.9c0.3,0.9,0.5,1.8,0.8,2.7
	c0.2,0.9,0.5,1.8,0.8,2.9h-9c-0.1-0.4-0.3-0.9-0.4-1.5c-0.2-0.5-0.3-1.1-0.5-1.7c-0.2-0.6-0.4-1.2-0.6-1.8c-0.2-0.6-0.4-1.2-0.5-1.8
	l-0.6-1.8c-0.3,0.3-0.6,0.7-1,1.1c-0.4,0.4-0.7,0.9-1.2,1.3c-0.4,0.4-0.8,0.9-1.1,1.3c-0.4,0.4-0.8,0.8-1.1,1.2
	c-0.6,0.6-1.4,1.2-2.1,1.7c-0.8,0.5-1.6,1-2.6,1.4c-1,0.4-2,0.8-3.2,1.1c-1.2,0.3-2.5,0.6-3.9,0.7c-0.3-1.2-0.6-2.4-0.8-3.6
	c-0.2-1.2-0.5-2.4-0.7-3.7c2.1-0.4,3.9-1,5.3-1.8c1.4-0.7,2.6-1.7,3.6-2.8l5.6-6.1v-13.1h-8.2v-7.8H852.7z M890.3,426.3
	c1.5,0,3,0.2,4.5,0.5c1.4,0.4,2.8,1,4,1.9c1.2,0.9,2.1,2.2,2.8,3.8c0.7,1.6,1.1,3.7,1.1,6.3v25h-9.8v-22.5c0-1.5-0.1-2.7-0.2-3.6
	c-0.1-1-0.4-1.7-0.9-2.2c-0.5-0.6-1.1-0.9-2-1.1c-0.9-0.2-2-0.3-3.5-0.3h-5.5c-0.8,1.7-1.3,3.4-1.7,5.3c-0.3,1.9-0.5,3.8-0.5,5.6
	c0,1.1,0,2,0.1,3c0,0.9,0.1,1.8,0.3,2.7c0.1,0.9,0.3,1.8,0.5,2.7c0.2,0.9,0.4,1.8,0.7,2.7l0.7,2.1c-0.1,1-0.2,2-0.3,2.9
	c-0.1,0.9-0.3,1.8-0.5,2.6h-17.7V456h8.3c-0.6-1.8-1.1-3.6-1.4-5.3c-0.3-1.7-0.5-3.4-0.5-5.1c0-1.3,0.1-2.7,0.2-4
	c0.2-1.3,0.5-2.7,0.9-4.1c0.2-0.6,0.4-1.3,0.6-1.8c0.2-0.6,0.4-1.2,0.7-1.8c-1.1-0.1-2.1-0.3-3.2-0.5c-1-0.2-2.2-0.6-3.5-1.1
	c0.4-1.3,0.8-2.6,1.2-3.8c0.4-1.3,0.8-2.5,1.3-3.7c1.2,0.3,2.3,0.6,3.2,0.8c0.9,0.2,1.7,0.4,2.5,0.4c0.8,0.1,1.6,0.2,2.5,0.2
	c0.9,0,2,0,3.2,0H890.3z M927.9,426.3v37.5H918v-29.7h-6.3v-7.8H927.9z M937,429.1c1.3-0.8,2.5-1.6,3.8-2.4c1.2-0.8,2.6-1.5,3.9-2.3
	c0.6,0.8,1.1,1.4,1.5,2c0.4,0.6,0.8,1.1,1.1,1.7c0.3,0.5,0.6,1,0.8,1.6c0.2,0.5,0.5,1.1,0.7,1.6c2-2.1,4.1-3.6,6.4-4.5
	c2.3-1,4.5-1.5,6.6-1.5c1.5,0,3,0.2,4.3,0.7c1.4,0.5,2.6,1.1,3.8,2c1.1,0.9,2.1,1.9,2.8,3.2c0.8,1.3,1.3,2.7,1.7,4.3
	c0.2,1.3,0.4,2.8,0.5,4.4c0.1,1.7,0.1,3.5,0.1,5.4c0,0.9,0,1.9,0,2.9c0,1,0,2.2,0,3.7c0,1.7,0,3.2-0.1,4.8c0,1.5-0.1,2.8-0.2,3.8
	c0,0.5-0.1,1.1-0.1,1.7c0,0.6-0.1,1.2-0.2,1.8h-19V456h9.6c0-0.1,0-0.4,0-0.8c0-0.4,0-0.9,0-1.7c0-0.7,0-1.7,0-2.8v-4.3
	c0-0.5,0-1.1,0-1.8c0-0.7,0-1.4,0-2.2c0-0.8,0-1.5,0-2.2c0-0.7-0.1-1.3-0.1-1.7c-0.3-2-0.9-3.3-1.8-4.2c-0.9-0.8-2.1-1.2-3.8-1.2
	c-0.9,0-1.8,0.2-2.7,0.5c-0.9,0.4-1.9,0.9-2.8,1.5c-0.6,0.4-1.1,0.8-1.6,1.3c-0.5,0.5-1.1,1-1.5,1.6c-0.4,2.7-0.8,5-1,6.9
	c-0.3,1.9-0.6,3.6-0.8,5.1c-0.2,1.4-0.4,2.7-0.6,3.8c-0.2,1.1-0.3,2.2-0.5,3.2c-0.2,1-0.3,2.1-0.5,3.2c-0.2,1.1-0.4,2.4-0.6,3.9
	h-9.8l0.9-6.3c0.2-1.5,0.4-3,0.7-4.4c0.2-1.4,0.4-2.8,0.6-4.1c0.2-1.4,0.4-2.7,0.7-4.1c0.2-1.4,0.5-2.9,0.7-4.5
	c0-0.4,0.1-0.8,0.1-1.2c0-0.3,0-0.7,0-1c0-0.7,0-1.3-0.1-1.8c-0.1-0.5-0.2-1-0.4-1.5c-0.2-0.5-0.5-1-0.7-1.5c-0.3-0.5-0.6-1.1-1-1.7
	L937,429.1z M1027.7,426.3c1.5,0,3,0.2,4.5,0.5c1.5,0.4,2.8,1,4,1.9c1.1,0.9,2.1,2.2,2.8,3.8c0.7,1.6,1.1,3.7,1.1,6.4v24.9h-35
	v-20.6c0-1.5,0.1-3,0.3-4.6c0.2-1.5,0.5-3.1,0.9-4.8c-0.8-0.1-1.7-0.3-2.5-0.5c-0.9-0.2-1.9-0.5-3-0.9c0.4-1.3,0.8-2.6,1.2-3.8
	c0.4-1.3,0.8-2.5,1.3-3.7c1.2,0.3,2.3,0.6,3.2,0.8c0.9,0.2,1.7,0.4,2.5,0.4c0.8,0.1,1.6,0.2,2.5,0.2c0.9,0,2,0,3.3,0H1027.7z
	 M1030.3,456v-14.7c0-1.5-0.1-2.7-0.2-3.6c-0.2-1-0.4-1.7-0.9-2.2c-0.5-0.6-1.1-0.9-2-1.1c-0.9-0.2-2-0.3-3.5-0.3h-8.1
	c-0.4,1.7-0.6,3.2-0.7,4.6c-0.1,1.4-0.1,2.8-0.1,4.3v13H1030.3z M1066.2,426.3V440c0,1.3,0,2.4,0,3.2c0,0.9-0.1,1.7-0.1,2.4
	c-0.1,0.7-0.2,1.4-0.3,2.1c-0.1,0.7-0.3,1.4-0.5,2.3l-9.7-1.4c0.1-0.7,0.2-1.4,0.3-2c0.1-0.6,0.2-1.2,0.3-1.9
	c0.1-0.7,0.2-1.4,0.2-2.3c0-0.8,0.1-1.9,0.1-3v-5.2h-8.3v-7.8H1066.2z M1095.7,426.3v5c0,0.5,0,1,0.1,1.5c0,0.6,0.1,1.3,0.2,2
	c0.1,0.8,0.2,1.8,0.4,3c0.1,1.2,0.3,2.6,0.5,4.2c0.2,1.6,0.4,3.6,0.6,5.8c0.3,2.2,0.5,4.8,0.8,7.7c0,0.4,0,0.8,0.1,1.1
	c0,0.4,0,0.7,0,1c0,0.6,0,1-0.1,1.5c0,0.5-0.1,0.9-0.2,1.4c0,0.5-0.1,1-0.2,1.5c-0.1,0.5-0.2,1.1-0.3,1.7h-24.4V456h15.6
	c0-0.5-0.1-1.4-0.2-2.5c-0.1-1.1-0.3-2.5-0.4-3.9c-0.2-1.5-0.4-3-0.6-4.6c-0.2-1.6-0.4-3.2-0.6-4.6c-0.2-1.4-0.3-2.7-0.4-3.9
	c-0.1-1.1-0.2-1.9-0.2-2.4h-9.3v-7.8H1095.7z M1123.2,426.3v37.5h-9.9v-29.7h-6.3v-7.8H1123.2z M1152.1,441.3c0-1.5-0.1-2.7-0.2-3.6
	c-0.1-1-0.4-1.7-0.9-2.2c-0.4-0.6-1.1-0.9-2-1.1c-0.9-0.2-2-0.3-3.4-0.3c-1.2,0-2.3,0-3.3,0c-0.9-0.1-1.8-0.1-2.7-0.2
	c-0.8-0.1-1.7-0.3-2.6-0.5c-0.9-0.2-1.9-0.5-3.1-0.9c0.4-1.3,0.7-2.6,1.2-3.8c0.4-1.3,0.8-2.5,1.3-3.7c1.2,0.3,2.3,0.6,3.2,0.8
	c0.9,0.2,1.7,0.4,2.5,0.4c0.8,0.1,1.7,0.2,2.5,0.2c0.9,0,2,0,3.2,0h1.8c1.5,0,3,0.2,4.5,0.5c1.5,0.4,2.8,1,4,1.9
	c1.1,0.9,2.1,2.2,2.8,3.8c0.8,1.6,1.1,3.7,1.1,6.3V456h6.6v7.8h-37.4V456h20.9V441.3z"/>
<path class="st2" d="M639.3,413.3c1-0.7,2-1.2,3.1-1.6c1.1-0.4,2.2-0.6,3.3-0.6c0.7,0,1.4,0.1,2.1,0.3c0.7,0.2,1.2,0.5,1.8,0.9
	c0.5,0.4,0.9,0.9,1.2,1.6c0.3,0.6,0.5,1.4,0.5,2.2c0,1-0.1,2-0.4,2.9c-0.3,0.9-0.7,1.9-1.3,3c-0.6,1.1-1.3,2.3-2.2,3.6
	c-0.9,1.3-1.9,3-3.1,4.8h-6.2l3.8-10.4L639.3,413.3z M655.2,413.2c1-0.7,2-1.2,3.1-1.6c1.1-0.4,2.2-0.6,3.3-0.6
	c0.7,0,1.4,0.1,2.1,0.3c0.7,0.2,1.2,0.5,1.8,0.9c0.5,0.4,0.9,0.9,1.2,1.6c0.3,0.6,0.5,1.4,0.5,2.2c0,1-0.1,2-0.4,2.9
	c-0.3,0.9-0.7,1.9-1.3,3c-0.6,1.1-1.3,2.3-2.2,3.6c-0.9,1.3-1.9,3-3.1,4.8h-6.2l3.8-10.4L655.2,413.2z"/>
<path class="st2" d="M377.3,426.3c1.5,0,3,0.2,4.5,0.5c1.5,0.4,2.8,1,4,1.9c1.2,0.9,2.1,2.2,2.8,3.8c0.7,1.6,1.1,3.7,1.1,6.4v24.9
	h-35v-20.6c0-1.5,0.1-3,0.3-4.5c0.2-1.5,0.5-3.1,1-4.8c-0.9-0.1-1.7-0.3-2.6-0.5c-0.9-0.2-1.9-0.5-3-0.9c0.4-1.3,0.8-2.6,1.2-3.8
	c0.4-1.3,0.8-2.5,1.3-3.7c1.2,0.3,2.3,0.6,3.2,0.8c0.9,0.2,1.7,0.4,2.5,0.4c0.8,0.1,1.7,0.2,2.5,0.2c0.9,0,2,0,3.3,0H377.3z
	 M379.9,456v-14.7c0-1.5-0.1-2.7-0.2-3.6c-0.1-1-0.4-1.7-0.9-2.2c-0.5-0.6-1.1-0.9-2-1.1c-0.9-0.2-2.1-0.3-3.5-0.3h-8.1
	c-0.4,1.7-0.6,3.2-0.7,4.6c-0.1,1.4-0.1,2.8-0.1,4.3v13H379.9z M415.8,426.3V440c0,1.3,0,2.4,0,3.2c0,0.9-0.1,1.7-0.2,2.4
	c-0.1,0.7-0.2,1.4-0.3,2.1c-0.1,0.7-0.3,1.4-0.5,2.3l-9.7-1.4c0.1-0.7,0.2-1.4,0.3-2c0.1-0.6,0.2-1.2,0.2-1.9
	c0.1-0.7,0.1-1.4,0.2-2.3c0-0.8,0.1-1.9,0.1-3v-5.2h-8.3v-7.8H415.8z M449.3,426.3c1.5,0,3,0.2,4.5,0.5c1.5,0.4,2.8,1,4,1.9
	c1.2,0.9,2.1,2.2,2.8,3.8c0.7,1.6,1.1,3.7,1.1,6.4v25h-9.8v-22.5c0-1.5,0-2.7-0.2-3.6c-0.1-1-0.4-1.7-0.9-2.2
	c-0.5-0.6-1.1-0.9-2-1.1c-0.9-0.2-2-0.3-3.5-0.3h-7.3c-0.4,1.7-0.6,3.2-0.7,4.6c-0.1,1.4-0.1,2.8-0.1,4.3v20.9h-9.8v-20.6
	c0-1.5,0.1-3,0.3-4.5c0.2-1.5,0.5-3.1,0.9-4.8c-0.8-0.1-1.7-0.3-2.5-0.5c-0.9-0.2-1.9-0.5-3-0.9c0.4-1.3,0.8-2.6,1.2-3.8
	c0.4-1.3,0.8-2.5,1.3-3.7c1.2,0.3,2.3,0.6,3.2,0.8c0.9,0.2,1.7,0.4,2.5,0.4c0.8,0.1,1.7,0.2,2.6,0.2c0.9,0,2,0,3.2,0H449.3z
	 M504.8,427.8l-0.2,4.7l-1.9,7.1c-0.3,1.1-0.7,2.2-1,3.1c-0.3,0.9-0.7,1.9-1.2,2.7c-0.5,0.8-1.1,1.7-1.8,2.5
	c-0.7,0.8-1.6,1.6-2.6,2.4l6,6.8c-0.1,1-0.3,2.2-0.5,3.4c-0.2,1.3-0.4,2.4-0.6,3.4h-30.7V456H490c-2.3-2.7-4.6-5.3-6.9-7.9
	c-2.3-2.6-4.6-5.2-6.8-7.9c-1-1.2-1.8-2.2-2.5-3.1c-0.7-0.9-1.3-1.8-1.9-2.8c-0.6-0.9-1.1-1.9-1.6-2.9c-0.5-1-1-2.2-1.5-3.6
	c1.3-0.6,2.8-1.1,4.3-1.6c1.5-0.5,2.9-1,4.2-1.5c0.5,1.3,1,2.5,1.5,3.6c0.5,1,1,2,1.5,3c0.5,0.9,1.2,1.9,1.9,2.8
	c0.7,0.9,1.6,2,2.5,3.1l6.3,7.3c0.4-0.4,0.7-0.8,1-1.2c0.3-0.4,0.5-0.9,0.8-1.5c0.2-0.6,0.4-1.2,0.6-1.8c0.2-0.7,0.4-1.4,0.6-2.2
	l1.1-4.4l-5.3-1.1l1.7-7.4L504.8,427.8z M534.4,426.3v5c0,0.5,0,1,0.1,1.5c0,0.6,0.1,1.3,0.2,2c0.1,0.8,0.2,1.8,0.4,3
	c0.2,1.2,0.3,2.6,0.5,4.2c0.2,1.6,0.4,3.6,0.7,5.8c0.2,2.2,0.5,4.8,0.8,7.7c0,0.4,0.1,0.8,0.1,1.1c0,0.4,0,0.7,0,1
	c0,0.6,0,1-0.1,1.5c0,0.5-0.1,0.9-0.1,1.4c-0.1,0.5-0.1,1-0.2,1.5c-0.1,0.5-0.2,1.1-0.3,1.7h-24.4V456h15.6c0-0.5-0.1-1.4-0.2-2.5
	c-0.1-1.1-0.3-2.5-0.4-3.9c-0.2-1.5-0.4-3-0.6-4.6c-0.2-1.6-0.4-3.2-0.6-4.6c-0.2-1.4-0.3-2.7-0.4-3.9c-0.1-1.1-0.2-1.9-0.2-2.4H516
	v-7.8H534.4z M545.1,429.1c1.3-0.8,2.5-1.6,3.8-2.4c1.3-0.8,2.6-1.5,3.9-2.3c0.6,0.8,1.1,1.4,1.5,2c0.4,0.6,0.8,1.1,1.1,1.7
	c0.3,0.5,0.6,1,0.8,1.6c0.2,0.5,0.5,1.1,0.7,1.6c2-2.1,4.1-3.6,6.4-4.5c2.2-1,4.4-1.5,6.6-1.5c1.5,0,3,0.2,4.4,0.7
	c1.4,0.5,2.7,1.1,3.8,2c1.1,0.9,2.1,1.9,2.8,3.2c0.8,1.3,1.3,2.7,1.7,4.3c0.3,1.3,0.4,2.8,0.5,4.4c0.1,1.7,0.1,3.5,0.1,5.4
	c0,0.9,0,1.9,0,2.9c0,1,0,2.2,0,3.7c0,1.7,0,3.3-0.1,4.8c-0.1,1.5-0.1,2.8-0.2,3.8c0,0.5-0.1,1.1-0.1,1.7c0,0.6-0.1,1.2-0.2,1.8h-19
	V456h9.6c0-0.1,0-0.4,0.1-0.8c0-0.4,0-0.9,0-1.7c0-0.7,0-1.7,0-2.8v-4.3c0-0.5,0-1.1,0-1.8c0-0.7,0-1.4,0-2.2c0-0.8,0-1.5,0-2.2
	c0-0.7,0-1.3-0.1-1.7c-0.3-2-0.9-3.3-1.8-4.2c-0.9-0.8-2.1-1.2-3.8-1.2c-0.9,0-1.8,0.2-2.8,0.5c-0.9,0.4-1.9,0.9-2.9,1.5
	c-0.6,0.4-1.1,0.8-1.6,1.3c-0.5,0.5-1,1-1.5,1.6c-0.4,2.7-0.8,5-1,6.9l-0.8,5.1c-0.2,1.4-0.4,2.7-0.6,3.8c-0.2,1.1-0.3,2.2-0.5,3.2
	c-0.2,1-0.3,2.1-0.5,3.2c-0.2,1.1-0.4,2.4-0.6,3.9h-9.8l0.9-6.3c0.2-1.5,0.4-3,0.6-4.4c0.2-1.4,0.4-2.8,0.6-4.1
	c0.2-1.4,0.5-2.7,0.7-4.1c0.2-1.4,0.5-2.9,0.7-4.5c0-0.4,0.1-0.8,0.1-1.2c0-0.3,0.1-0.7,0.1-1c0-0.7-0.1-1.3-0.2-1.8
	c-0.1-0.5-0.3-1-0.4-1.5c-0.2-0.5-0.4-1-0.7-1.5c-0.3-0.5-0.6-1.1-1-1.7L545.1,429.1z M634.8,426.3v48.9h-9.9v-41.1h-7.4v-7.8H634.8
	z"/>
</svg>
