<svg xmlns="http://www.w3.org/2000/svg" xmlns:xlink="http://www.w3.org/1999/xlink" id="Layer_1" x="0px" y="0px" width="165.167px" height="66px" viewBox="0 0 165.167 66" xml:space="preserve"><path fill="#462C40" d="M19.565,3.886c-0.661-0.776-1.65-1.446-2.969-2.008c-1.321-0.563-3.145-0.845-5.473-0.845 S6.971,1.315,5.651,1.878C4.331,2.44,3.342,3.11,2.682,3.886C2.021,4.664,1.614,5.448,1.458,6.245 C1.303,7.041,1.226,7.652,1.226,8.078v1.513v23.434v1.457c0,0.425,0.077,1.037,0.233,1.834c0.156,0.796,0.562,1.581,1.223,2.357 c0.66,0.777,1.649,1.447,2.97,2.009c1.319,0.561,3.145,0.843,5.472,0.843s4.152-0.282,5.473-0.843 c1.318-0.562,2.308-1.232,2.969-2.009c0.659-0.776,1.067-1.552,1.223-2.329c0.154-0.775,0.233-1.396,0.233-1.862V33.9v-6.115v-4.167 v-1.864c0-0.542-0.049-1.019-0.146-1.426c-0.097-0.406-0.232-0.786-0.409-1.134c-0.174-0.349-0.436-0.698-0.785-1.048 c-0.7-0.737-1.592-1.224-2.679-1.457c-0.322-0.069-0.626-0.064-0.936-0.085v0.014h-3.091v4.865h3.091v3.373 c0.002,0.048,0.004,0.085,0.004,0.136v5.064v2.968v0.642c0,0.31-0.059,0.668-0.175,1.076c-0.117,0.407-0.358,0.786-0.727,1.135 c-0.369,0.348-0.884,0.65-1.543,0.902c-0.661,0.254-1.554,0.378-2.679,0.378c-1.048,0-1.892-0.125-2.532-0.378 c-0.641-0.251-1.136-0.563-1.485-0.931c-0.349-0.37-0.573-0.757-0.669-1.164c-0.099-0.408-0.146-0.785-0.146-1.134v-0.526V9.591 V9.066c0-0.349,0.047-0.726,0.146-1.134c0.096-0.409,0.32-0.806,0.669-1.194C7.28,6.351,7.775,6.03,8.416,5.778 C9.056,5.525,9.9,5.4,10.948,5.4c1.125,0,2.018,0.125,2.679,0.378c0.659,0.252,1.174,0.553,1.543,0.904 c0.369,0.35,0.61,0.726,0.727,1.134c0.116,0.409,0.175,0.787,0.175,1.134v0.642h4.95V8.078c0-0.426-0.08-1.038-0.233-1.833 C20.632,5.448,20.224,4.664,19.565,3.886"></path><path fill="#462C40" d="M92.047,5.545c-0.271-0.775-0.678-1.48-1.219-2.118c-0.543-0.639-1.229-1.161-2.061-1.569 c-0.834-0.404-1.809-0.609-2.931-0.609h-8.243h-4.876v15.683v4.585v20.007h13.119c1.122,0,2.096-0.203,2.931-0.609 c0.832-0.406,1.518-0.929,2.061-1.567c0.541-0.639,0.948-1.345,1.219-2.119c0.27-0.773,0.406-1.528,0.406-2.263v-1.509v-7.936 v-1.276c0-0.542-0.126-1.296-0.377-2.265c-0.251-0.966-0.88-1.876-1.886-2.727c1.006-0.813,1.635-1.702,1.886-2.669 c0.251-0.969,0.377-1.723,0.377-2.265v-1.044V9.318V7.809C92.453,7.075,92.316,6.319,92.047,5.545 M87.519,25.696v8.574 c-0.077,0.89-0.396,1.645-0.957,2.263c-0.562,0.62-1.328,0.93-2.293,0.93h-3.541h-3.134V21.518h4.991 c1.044,0,1.895,0.125,2.554,0.376c0.658,0.253,1.162,0.561,1.51,0.93c0.347,0.367,0.58,0.754,0.696,1.16s0.173,0.765,0.173,1.075 V25.696z M87.519,8.911v3.899v0.697c0,0.271-0.047,0.59-0.144,0.957c-0.098,0.369-0.291,0.727-0.582,1.074 c-0.289,0.349-0.695,0.65-1.217,0.899c-0.521,0.252-1.212,0.416-2.062,0.495h-5.92V5.313h3.134h3.541 c1.006,0,1.799,0.339,2.381,1.016c0.58,0.677,0.869,1.5,0.869,2.467V8.911z"></path><path fill="#462C40" d="M127.96,6.331c-0.156-0.795-0.561-1.582-1.221-2.359c-0.661-0.776-1.65-1.445-2.971-2.008 c-1.319-0.562-3.144-0.844-5.473-0.844c-2.327,0-4.153,0.282-5.472,0.844c-1.319,0.563-2.31,1.232-2.97,2.008 c-0.659,0.778-1.066,1.564-1.221,2.359c-0.156,0.795-0.233,1.406-0.233,1.832v33.362h4.89V26.632L113.296,27v-0.667 c0-2.544,1.599-4.612,4.081-4.85h-4.088V9.153c0-0.349,0.048-0.728,0.146-1.134c0.097-0.408,0.319-0.806,0.671-1.195 c0.348-0.387,0.842-0.707,1.484-0.96c0.639-0.251,1.484-0.378,2.532-0.378c1.125,0,2.018,0.126,2.678,0.378 c0.658,0.254,1.173,0.553,1.543,0.902c0.369,0.349,0.61,0.728,0.728,1.136c0.116,0.407,0.175,0.786,0.175,1.135v12.445h-4.103 c2.484,0.238,4.109,2.306,4.109,4.85v9.546h-0.006v5.646h4.948V8.163C128.193,7.737,128.115,7.125,127.96,6.331"></path><path fill="#462C40" d="M56.578,6.331c-0.156-0.795-0.562-1.582-1.224-2.359c-0.66-0.776-1.649-1.445-2.969-2.008 c-1.32-0.562-3.144-0.844-5.473-0.844c-2.328,0-4.154,0.282-5.473,0.844c-1.318,0.563-2.31,1.232-2.969,2.008 c-0.66,0.778-1.068,1.564-1.223,2.359c-0.156,0.795-0.233,1.406-0.233,1.832v33.362h4.89V26.632L41.913,27v-0.667 c0-2.544,1.599-4.612,4.081-4.85h-4.088V9.153c0-0.349,0.048-0.728,0.146-1.134c0.096-0.408,0.319-0.806,0.67-1.195 c0.349-0.387,0.843-0.707,1.484-0.96c0.64-0.251,1.485-0.378,2.532-0.378c1.125,0,2.019,0.126,2.678,0.378 c0.659,0.254,1.174,0.553,1.543,0.902c0.369,0.349,0.612,0.728,0.728,1.136c0.117,0.407,0.176,0.786,0.176,1.135v12.445h-4.102 c2.482,0.238,4.108,2.306,4.108,4.85v9.546h-0.006v5.646h4.948V8.163C56.811,7.737,56.732,7.125,56.578,6.331"></path><path fill="#462C40" d="M158.905,1.06v16.755c0,0.349-0.048,0.728-0.145,1.136c-0.098,0.407-0.32,0.805-0.671,1.193 c-0.35,0.387-0.843,0.707-1.485,0.96c-0.64,0.251-1.485,0.378-2.532,0.378c-1.125,0-2.018-0.126-2.678-0.378 c-0.659-0.253-1.174-0.553-1.542-0.902c-0.369-0.349-0.612-0.728-0.728-1.137c-0.116-0.406-0.174-0.785-0.174-1.134V1.06H144v17.745 c0,0.426,0.079,1.038,0.232,1.833c0.156,0.795,0.563,1.582,1.224,2.359c0.66,0.776,1.65,1.445,2.97,2.008 c0.805,0.343,1.823,0.569,3.005,0.703v15.834h4.932V25.708c1.184-0.134,2.202-0.359,3.008-0.703c1.318-0.563,2.31-1.232,2.969-2.008 c0.66-0.778,1.067-1.564,1.222-2.359c0.156-0.795,0.232-1.406,0.232-1.833V1.06H158.905z"></path><path fill="#462C40" d="M156.433,58.434h-3.605v-6.66h3.605c1.343,0,2.369,0.287,3.076,0.858c0.707,0.573,1.06,1.396,1.06,2.472 c0,1.075-0.353,1.898-1.06,2.471C158.801,58.148,157.776,58.434,156.433,58.434 M156.497,49.928h-5.791v14.848h2.121v-4.496h3.669 c1.923,0,3.437-0.459,4.539-1.381c1.103-0.919,1.655-2.185,1.655-3.796c0-1.613-0.552-2.878-1.655-3.797 C159.933,50.388,158.419,49.928,156.497,49.928 M140.079,64.946c1.979,0,3.521-0.561,4.624-1.686 c1.103-1.125,1.654-2.754,1.654-4.89v-8.442H144.3v8.357c0,1.612-0.36,2.81-1.082,3.596c-0.721,0.784-1.762,1.176-3.119,1.176 c-2.786,0-4.179-1.59-4.179-4.772v-8.357h-2.122v8.442c0,2.121,0.553,3.748,1.655,4.879 C136.557,64.381,138.098,64.946,140.079,64.946 M122.812,63.058c-1.089,0-2.075-0.248-2.958-0.744 c-0.884-0.493-1.578-1.175-2.08-2.045c-0.502-0.868-0.752-1.84-0.752-2.917s0.25-2.047,0.752-2.917 c0.501-0.871,1.196-1.553,2.08-2.048c0.884-0.493,1.869-0.741,2.958-0.741c1.088,0,2.068,0.248,2.938,0.741 c0.869,0.496,1.555,1.178,2.058,2.048c0.502,0.869,0.752,1.84,0.752,2.917s-0.25,2.048-0.752,2.917 c-0.503,0.871-1.188,1.552-2.058,2.045C124.879,62.811,123.9,63.058,122.812,63.058 M122.812,64.946c1.485,0,2.828-0.329,4.03-0.987 c1.202-0.656,2.143-1.562,2.822-2.714c0.679-1.152,1.019-2.451,1.019-3.892c0-1.444-0.34-2.74-1.019-3.892 c-0.679-1.152-1.62-2.057-2.822-2.715c-1.202-0.66-2.545-0.986-4.03-0.986c-1.499,0-2.85,0.326-4.05,0.986 c-1.203,0.658-2.147,1.566-2.833,2.726c-0.687,1.16-1.028,2.453-1.028,3.881c0,1.429,0.341,2.723,1.028,3.882 c0.686,1.16,1.63,2.068,2.833,2.724C119.962,64.617,121.313,64.946,122.812,64.946 M106.415,58.455h-3.606v-6.682h3.606 c1.344,0,2.369,0.287,3.076,0.858c0.708,0.573,1.061,1.396,1.061,2.472c0,1.075-0.353,1.903-1.061,2.482 S107.758,58.455,106.415,58.455 M112.926,64.776l-3.521-4.984c1.047-0.368,1.854-0.955,2.419-1.761 c0.565-0.806,0.848-1.783,0.848-2.928c0-1.613-0.551-2.878-1.654-3.797c-1.103-0.919-2.617-1.378-4.541-1.378h-5.791v14.848h2.121 v-4.517h3.669c0.228,0,0.538-0.015,0.935-0.043l3.203,4.561H112.926z M94.599,62.104c-0.989,0.636-2.148,0.954-3.478,0.954 c-1.118,0-2.125-0.248-3.024-0.744c-0.897-0.493-1.601-1.175-2.111-2.045c-0.509-0.868-0.763-1.84-0.763-2.917 c0-1.088,0.254-2.068,0.763-2.938c0.51-0.871,1.214-1.547,2.111-2.036c0.898-0.488,1.913-0.731,3.044-0.731 c1.683,0,3.119,0.572,4.307,1.718l1.314-1.315c-0.68-0.75-1.503-1.319-2.472-1.708c-0.97-0.389-2.046-0.583-3.234-0.583 c-1.514,0-2.874,0.324-4.084,0.975c-1.208,0.651-2.156,1.557-2.843,2.715c-0.686,1.161-1.027,2.459-1.027,3.903 c0,1.441,0.342,2.74,1.027,3.892c0.687,1.152,1.631,2.058,2.833,2.714c1.201,0.658,2.553,0.987,4.052,0.987 c1.06,0,2.079-0.162,3.055-0.486c0.976-0.326,1.831-0.793,2.567-1.401v-5.791h-2.038V62.104z M76.463,49.928h-2.1l-4.773,7.828 l-4.75-7.828h-2.27l5.896,9.672v5.176h2.102v-5.133L76.463,49.928z M52.557,59.367l3.204-7.274l3.203,7.274H52.557z M61.339,64.776 h2.227l-6.745-14.848h-2.1l-6.724,14.848h2.184l1.634-3.712h7.892L61.339,64.776z M41.188,63.058h-4.878v-4.941h4.878 c2.417,0,3.627,0.827,3.627,2.481c0,0.849-0.305,1.472-0.912,1.867C43.294,62.861,42.389,63.058,41.188,63.058 M40.657,51.646 c1.088,0,1.927,0.201,2.514,0.604c0.586,0.404,0.88,0.995,0.88,1.772s-0.294,1.369-0.88,1.77c-0.587,0.404-1.426,0.604-2.514,0.604 h-4.348v-4.75H40.657z M44.179,57.077c0.607-0.297,1.092-0.728,1.453-1.293c0.36-0.566,0.54-1.238,0.54-2.016 c0-1.203-0.463-2.142-1.389-2.821c-0.926-0.679-2.238-1.018-3.935-1.018h-6.66v14.848h7.085c1.853,0,3.262-0.346,4.232-1.04 c0.969-0.692,1.452-1.683,1.452-2.97c0-0.961-0.247-1.756-0.741-2.387C45.72,57.751,45.04,57.317,44.179,57.077 M20.972,59.367 l3.203-7.274l3.203,7.274H20.972z M29.754,64.776h2.228l-6.746-14.848h-2.1l-6.725,14.848h2.185l1.634-3.712h7.891L29.754,64.776z  M12.572,62.104c-0.99,0.636-2.149,0.954-3.479,0.954c-1.117,0-2.125-0.248-3.022-0.744c-0.899-0.493-1.602-1.175-2.111-2.045 c-0.508-0.868-0.764-1.84-0.764-2.917c0-1.088,0.255-2.068,0.764-2.938c0.509-0.871,1.212-1.547,2.111-2.036 c0.897-0.488,1.912-0.731,3.043-0.731c1.683,0,3.119,0.572,4.306,1.718l1.315-1.315c-0.678-0.75-1.502-1.319-2.47-1.708 c-0.969-0.389-2.048-0.583-3.235-0.583c-1.513,0-2.875,0.324-4.083,0.975c-1.209,0.651-2.157,1.557-2.843,2.715 c-0.686,1.161-1.028,2.459-1.028,3.903c0,1.441,0.343,2.74,1.028,3.892c0.686,1.152,1.63,2.058,2.832,2.714 c1.202,0.658,2.553,0.987,4.052,0.987c1.06,0,2.079-0.162,3.055-0.486c0.976-0.326,1.832-0.793,2.566-1.401v-5.791h-2.037V62.104z"></path></svg>